<svg version="1.0" xmlns="http://www.w3.org/2000/svg" width="933.333" height="933.333" viewBox="0 0 700 700">
<path d="M324.5 9.6C284 13.5 253.2 20.8 221.1 34 162.7 58 113.4 96.4 75.3 147.7 63 164.3 54 179.1 44 199.5 26.9 234.3 17 266.9 11.3 307c-2.5 17.7-2.5 68.1 0 86 9.1 64.9 33.1 121 73.3 171.5 11.3 14.1 36.8 39.6 50.9 50.9 41 32.7 86.1 54.8 135.5 66.5 29.2 6.9 44.5 8.6 79 8.6 29.8 0 36.5-.5 59.5-4.6 56.8-10 108.7-33.6 155-70.6 14.2-11.3 39.7-36.7 50.9-50.8 43.7-54.9 68.6-117.2 74.7-187 1.4-16.5.6-55.1-1.6-71-7.9-58.4-29.9-113.2-64-159.1-56-75.4-136.7-122.9-231-135.9-11.4-1.6-58.8-2.9-69-1.9zm61 11.7c15 3.4 26.8 7.8 40.5 14.8 45.6 23.6 76.9 65.2 87.2 116.2 2 9.6 2.3 14.1 2.2 32.2 0 17.8-.4 22.6-2.3 31.5-7.3 34.4-23.4 63.6-47.7 87-9.8 9.4-17.5 15.5-27.4 21.7-25.8 16.1-57.7 25.2-88 25.3-45.1.1-87.7 18.2-119.1 50.6-22.9 23.7-37 50.5-44 83.4-1.9 8.9-2.3 13.7-2.3 31.5-.1 18.1.2 22.6 2.2 32.2 13.3 65.7 62.5 116.1 127.3 130.7 6.4 1.4 13.1 2.6 14.9 2.6 1.9 0 3.1.3 2.7.6-.8.9-21.4-1.3-36.5-3.7C186 660 91.1 586.5 46 484.7c-14.1-32-23.5-67.6-27-102.6-1.3-13.3-1.3-50.9 0-64.2 10.9-110 75-206.7 172.2-260 37.6-20.6 79.2-33.5 125.3-38.8 4.4-.5 19.3-.8 33-.6 22.4.3 26.1.6 36 2.8zm-16.3 456c26.9 13.2 32.7 48.5 11.6 69.6-9.8 9.8-24.4 14.6-37.4 12.4-24-4.1-40.5-26.7-36.5-49.8 2.9-16.7 13.4-29 29.6-34.8 3.8-1.3 7.4-1.7 15.1-1.5 9.3.3 10.6.6 17.6 4.1z"/>
<path d="M339.5 141.4c-16.7 4.2-29.6 18.2-32.6 35.5-3.3 18.4 7.3 38.1 24.8 46.4 6.4 3 7.4 3.2 18.3 3.2 10.8 0 11.9-.2 18-3.1 17.9-8.5 28.4-27.9 25-46.6-4.5-25.4-28.9-41.5-53.5-35.4z"/>
</svg>
